/vscmnt/brussel_pixiu_data/_data_brussel/112/vsc11236/PredSimResults/SUBJ11opt3D/weighted-expIG/worker_05.mot
version=1
nRows=4
nColumns=50
inDegrees=yes
endheader
                time	         pelvis_tilt	         pelvis_list	     pelvis_rotation	           pelvis_tx	           pelvis_ty	           pelvis_tz	       hip_flexion_r	     hip_adduction_r	      hip_rotation_r	        knee_angle_r	       ankle_angle_r	         mtp_angle_r	       hip_flexion_l	     hip_adduction_l	      hip_rotation_l	        knee_angle_l	       ankle_angle_l	         mtp_angle_l	    lumbar_extension	      lumbar_bending	     lumbar_rotation	 ercspn_r/activation	 intobl_r/activation	 extobl_r/activation	    abd_r/activation	    add_r/activation	hamstrings_r/activation	bifemsh_r/activation	glut_max_r/activation	iliopsoas_r/activation	rect_fem_r/activation	  vasti_r/activation	gastroc_r/activation	 soleus_r/activation	tib_ant_r/activation	 ercspn_l/activation	 intobl_l/activation	 extobl_l/activation	    abd_l/activation	    add_l/activation	hamstrings_l/activation	bifemsh_l/activation	glut_max_l/activation	iliopsoas_l/activation	rect_fem_l/activation	  vasti_l/activation	gastroc_l/activation	 soleus_l/activation	tib_ant_l/activation	
          0.72963666	         -1.92738005	          1.59011969	         -7.06929112	          0.70774756	          0.94551382	          0.00464449	        -12.96663032	         -3.27795288	          1.14570674	        -12.40012702	         13.99102527	         27.80017589	         29.47834698	         -0.84440000	         -2.22917871	         -9.09220312	          1.43412863	          0.21352321	        -14.13235089	          3.00314485	          3.34135596	          0.01000097	          0.01000025	          0.01000015	          0.05242223	          0.01000092	          0.02109918	          0.31248537	          0.03693091	          0.17372943	          0.01000215	          0.01000028	          0.17066612	          0.35856122	          0.01545581	          0.03015855	          0.30216594	          0.07637451	          0.01000012	          0.21129934	          0.03598180	          0.09762891	          0.02538277	          0.12015623	          0.04632070	          0.02569111	          0.01000018	          0.01000003	          0.39797694	
          0.74422940	         -2.12394161	          1.72843907	         -7.06962589	          0.72604754	          0.94306989	          0.00308916	        -13.45242547	         -3.59798323	          0.61970824	        -13.14743403	         13.41640220	         29.58371548	         29.34500039	         -0.48032205	         -2.42685664	        -10.09288395	          0.91432003	          0.22913944	        -13.61207692	          2.39277770	          3.58090507	          0.01000213	          0.01000019	          0.01000016	          0.04216679	          0.01000102	          0.02681336	          0.28498952	          0.02970622	          0.13974409	          0.01000103	          0.01000019	          0.15607880	          0.34214689	          0.01243220	          0.02425882	          0.25215392	          0.06143322	          0.01000004	          0.23329803	          0.03983673	          0.07853014	          0.04111671	          0.09664983	          0.03725902	          0.02066531	          0.01243381	          0.01545484	          0.41039955	
          0.75882213	         -2.29649509	          1.90256250	         -7.04899579	          0.74489453	          0.94086680	          0.00148358	        -13.84273794	         -3.96160608	          0.08457565	        -14.14293106	         12.68511788	         31.47289531	         29.12209144	         -0.10139279	         -2.50806462	        -11.27956756	          0.42622739	          0.20559583	        -13.04109413	          1.72549708	          3.82401626	          0.01000446	          0.01000014	          0.01000099	          0.03391763	          0.02157163	          0.04252003	          0.25151310	          0.02389480	          0.11240619	          0.01000048	          0.01000015	          0.12554497	          0.32006572	          0.01000020	          0.01951322	          0.21348208	          0.04941493	          0.01000737	          0.18765788	          0.05160511	          0.06316783	          0.09296181	          0.07774203	          0.02997007	          0.01662276	          0.01000162	          0.01243142	          0.46919414	
          0.77341486	         -2.44800353	          2.10254363	         -6.99514067	          0.76396437	          0.93910627	         -0.00021023	        -14.04772304	         -4.35500662	         -0.47496056	        -15.49470616	         11.75445614	         33.47275995	         28.87405714	          0.29343142	         -2.70149337	        -12.41519579	         -0.30442463	          0.18347862	        -12.45692686	          1.02073799	          4.05639030	          0.02123966	          0.01000014	          0.01000036	          0.02728227	          0.01817205	          0.05842480	          0.20606377	          0.01922026	          0.09041632	          0.01000039	          0.01000013	          0.10098438	          0.29205254	          0.01000012	          0.01569684	          0.17171835	          0.03974780	          0.02883764	          0.19339073	          0.06092974	          0.05081081	          0.08576549	          0.06253321	          0.02410706	          0.06499735	          0.01000022	          0.01000007	          0.53288604	
